{
 "cells": [
  {
   "cell_type": "markdown",
   "metadata": {},
   "source": [
    "# Define variables"
   ]
  },
  {
   "cell_type": "code",
   "execution_count": 1,
   "metadata": {},
   "outputs": [],
   "source": [
    "import pathlib\n",
    "import os\n",
    "import subprocess\n",
    "\n",
    "watermark_path = pathlib.Path(\"/home/ubuntu/drives/mkt/2 - Content/2 - Graphics/Animations/Logo final.png\")\n",
    "root_path_dir = pathlib.Path(f\"/home/ubuntu/Documents/animations_059_Generalli/building_131/\")\n",
    "images_case = \"ux_y\"\n",
    "\n",
    "# images_case = \"animation_vortex\"\n",
    "\n",
    "# watermark_position = (30,30)\n",
    "# watermark_position = (30, 690)\n",
    "watermark_position = (1250,720)\n",
    "watermark_scale = .2\n",
    "\n",
    "crop_margins = (0, 0, 0, 0)\n",
    "\n",
    "gif_size_list = [1920, 1080]\n",
    "speed_multiplier_list = [1.0]\n",
    "framerate_default = 15\n",
    "\n",
    "test_single_image = False\n",
    "add_watermark_to_images = True\n",
    "turn_into_video = True\n",
    "generate_intermediate_frames = True\n",
    "target_framerate = 24\n"
   ]
  },
  {
   "cell_type": "markdown",
   "metadata": {},
   "source": [
    "# Adds watermarks"
   ]
  },
  {
   "cell_type": "code",
   "execution_count": 2,
   "metadata": {},
   "outputs": [],
   "source": [
    "from PIL import Image\n",
    "import pathlib\n",
    "\n",
    "def add_watermark_to_image(\n",
    "    image: Image, watermark: Image, watermark_position: tuple, \n",
    ") -> Image:\n",
    "    image.paste(watermark, watermark_position, watermark)\n",
    "    return image\n",
    "\n",
    "def rescale_image(image: Image, image_scale: float) -> Image:\n",
    "    new_width = int(image.width*image_scale)\n",
    "    new_height = int(image.height*image_scale)\n",
    "    image = image.resize((new_width, new_height), Image.Resampling.LANCZOS)\n",
    "    return image\n",
    "\n",
    "def crop_image_margins(\n",
    "    image: pathlib.Path, crop_margins: tuple\n",
    ") -> Image:\n",
    "    w, h =  image.width, image.height\n",
    "    image = image.crop((crop_margins[0], crop_margins[1], w-crop_margins[2], h-crop_margins[3]))\n",
    "    return image"
   ]
  },
  {
   "cell_type": "code",
   "execution_count": 3,
   "metadata": {},
   "outputs": [],
   "source": [
    "def process_image(image: Image, crop_margins: tuple, watermark_position: tuple=None, watermark: Image=None) -> Image:\n",
    "    image = crop_image_margins(image=image, crop_margins=crop_margins)\n",
    "    image = add_watermark_to_image(image=image, watermark=watermark, watermark_position=watermark_position)\n",
    "    return image"
   ]
  },
  {
   "cell_type": "code",
   "execution_count": 4,
   "metadata": {},
   "outputs": [],
   "source": [
    "def generate_mp4_from_images(images_dir: pathlib.Path, video_dir: pathlib.Path, image_size: int, speed_multiplier: float):\n",
    "    mp4_file = video_dir/f\"{images_dir.stem}_size{image_size}_speed{speed_multiplier}.mp4\"\n",
    "    mp4_file.unlink(missing_ok=True)\n",
    "    command = f'ffmpeg -framerate {framerate_default} -pattern_type glob -i \"{images_dir}/*.png\" \\\n",
    "    -filter_complex \"setpts={1/speed_multiplier}*PTS,scale={image_size}:-2:flags=lanczos\" \\\n",
    "    -c:v libx264 -preset slow -crf 24 -pix_fmt yuv420p \"{mp4_file}\"'\n",
    "    print(\"command:\", command)\n",
    "    try:\n",
    "        print(os.getcwd())\n",
    "        subprocess.run(command, shell=True, check=True)\n",
    "    except subprocess.CalledProcessError as e:\n",
    "        print(f\"Error: {e}\")\n",
    "    return mp4_file"
   ]
  },
  {
   "cell_type": "code",
   "execution_count": 5,
   "metadata": {},
   "outputs": [],
   "source": [
    "def generate_frames_for_video(video_file: pathlib.Path):\n",
    "    output_path = video_file.parent/f\"{video_file.stem}_interpolated.mp4\"\n",
    "    command = f'ffmpeg -y -i \"{video_file}\" -filter_complex \"[0:v]minterpolate=mi_mode=mci:mc_mode=none:me_mode=bidir:fps={target_framerate}[v];[v]setpts=1*PTS\" \"{output_path}\"'\n",
    "    print(\"command:\", command)\n",
    "    try:\n",
    "        print(os.getcwd())\n",
    "        subprocess.run(command, shell=True, check=True)\n",
    "    except subprocess.CalledProcessError as e:\n",
    "        print(f\"Error: {e}\")"
   ]
  },
  {
   "cell_type": "code",
   "execution_count": 6,
   "metadata": {},
   "outputs": [],
   "source": [
    "path_use_root = root_path_dir / images_case\n",
    "\n",
    "images_path_dir = path_use_root / \"raw\"\n",
    "images_with_watermark_path_dir = path_use_root/ f\"watermarked/\"\n",
    "videos_path = path_use_root/ f\"videos/\"\n",
    "\n",
    "images_with_watermark_path_dir.mkdir(parents=True, exist_ok=True)\n",
    "videos_path.mkdir(parents=True, exist_ok=True)\n",
    "\n",
    "\n",
    "# sorted([im for im in images_path_dir.iterdir()])"
   ]
  },
  {
   "cell_type": "code",
   "execution_count": 7,
   "metadata": {},
   "outputs": [],
   "source": [
    "if test_single_image:\n",
    "    sample_file_path = next(images_path_dir.iterdir())\n",
    "    sample_file = Image.open(sample_file_path)\n",
    "    watermark = Image.open(watermark_path)\n",
    "    watermark = rescale_image(image=watermark, image_scale=watermark_scale)\n",
    "    img = process_image(image=sample_file, crop_margins=crop_margins ,watermark_position=watermark_position, watermark=watermark)\n",
    "    img.save(images_with_watermark_path_dir/sample_file_path.name)"
   ]
  },
  {
   "cell_type": "code",
   "execution_count": 8,
   "metadata": {},
   "outputs": [],
   "source": [
    "if add_watermark_to_images:\n",
    "    watermark = Image.open(watermark_path)\n",
    "    watermark = rescale_image(image=watermark, image_scale=watermark_scale)\n",
    "    for item in sorted([im for im in images_path_dir.iterdir()]):\n",
    "        if item.is_dir():\n",
    "            continue\n",
    "        else:\n",
    "            try:\n",
    "                # print(item.name)\n",
    "                with Image.open(item) as img:\n",
    "                    img = process_image(image=img, crop_margins=crop_margins, watermark_position=watermark_position, watermark=watermark)\n",
    "                    img.save(images_with_watermark_path_dir/item.name)\n",
    "            except IOError:\n",
    "                continue"
   ]
  },
  {
   "cell_type": "code",
   "execution_count": 9,
   "metadata": {},
   "outputs": [
    {
     "name": "stdout",
     "output_type": "stream",
     "text": [
      "command: ffmpeg -framerate 15 -pattern_type glob -i \"/home/ubuntu/Documents/animations_059_Generalli/building_131/ux_y/watermarked/*.png\"     -filter_complex \"setpts=1.0*PTS,scale=1920:-2:flags=lanczos\"     -c:v libx264 -preset slow -crf 24 -pix_fmt yuv420p \"/home/ubuntu/Documents/animations_059_Generalli/building_131/ux_y/videos/watermarked_size1920_speed1.0.mp4\"\n",
      "/home/ubuntu/Documents/Codigos/AeroSim/cfdmod\n"
     ]
    },
    {
     "name": "stderr",
     "output_type": "stream",
     "text": [
      "ffmpeg version 6.1.1-3ubuntu5 Copyright (c) 2000-2023 the FFmpeg developers\n",
      "  built with gcc 13 (Ubuntu 13.2.0-23ubuntu3)\n",
      "  configuration: --prefix=/usr --extra-version=3ubuntu5 --toolchain=hardened --libdir=/usr/lib/x86_64-linux-gnu --incdir=/usr/include/x86_64-linux-gnu --arch=amd64 --enable-gpl --disable-stripping --disable-omx --enable-gnutls --enable-libaom --enable-libass --enable-libbs2b --enable-libcaca --enable-libcdio --enable-libcodec2 --enable-libdav1d --enable-libflite --enable-libfontconfig --enable-libfreetype --enable-libfribidi --enable-libglslang --enable-libgme --enable-libgsm --enable-libharfbuzz --enable-libmp3lame --enable-libmysofa --enable-libopenjpeg --enable-libopenmpt --enable-libopus --enable-librubberband --enable-libshine --enable-libsnappy --enable-libsoxr --enable-libspeex --enable-libtheora --enable-libtwolame --enable-libvidstab --enable-libvorbis --enable-libvpx --enable-libwebp --enable-libx265 --enable-libxml2 --enable-libxvid --enable-libzimg --enable-openal --enable-opencl --enable-opengl --disable-sndio --enable-libvpl --disable-libmfx --enable-libdc1394 --enable-libdrm --enable-libiec61883 --enable-chromaprint --enable-frei0r --enable-ladspa --enable-libbluray --enable-libjack --enable-libpulse --enable-librabbitmq --enable-librist --enable-libsrt --enable-libssh --enable-libsvtav1 --enable-libx264 --enable-libzmq --enable-libzvbi --enable-lv2 --enable-sdl2 --enable-libplacebo --enable-librav1e --enable-pocketsphinx --enable-librsvg --enable-libjxl --enable-shared\n",
      "  libavutil      58. 29.100 / 58. 29.100\n",
      "  libavcodec     60. 31.102 / 60. 31.102\n",
      "  libavformat    60. 16.100 / 60. 16.100\n",
      "  libavdevice    60.  3.100 / 60.  3.100\n",
      "  libavfilter     9. 12.100 /  9. 12.100\n",
      "  libswscale      7.  5.100 /  7.  5.100\n",
      "  libswresample   4. 12.100 /  4. 12.100\n",
      "  libpostproc    57.  3.100 / 57.  3.100\n",
      "Input #0, image2, from '/home/ubuntu/Documents/animations_059_Generalli/building_131/ux_y/watermarked/*.png':\n",
      "  Duration: 00:00:13.40, start: 0.000000, bitrate: N/A\n",
      "  Stream #0:0: Video: png, rgb24(pc, gbr/unknown/unknown), 1554x818, 15 fps, 15 tbr, 15 tbn\n",
      "Stream mapping:\n",
      "  Stream #0:0 (png) -> setpts:default\n",
      "  scale:default -> Stream #0:0 (libx264)\n",
      "Press [q] to stop, [?] for help\n",
      "[libx264 @ 0x645987b5f3c0] using cpu capabilities: MMX2 SSE2Fast SSSE3 SSE4.2 AVX FMA3 BMI2 AVX2\n",
      "[libx264 @ 0x645987b5f3c0] profile High, level 5.0, 4:2:0, 8-bit\n",
      "[libx264 @ 0x645987b5f3c0] 264 - core 164 r3108 31e19f9 - H.264/MPEG-4 AVC codec - Copyleft 2003-2023 - http://www.videolan.org/x264.html - options: cabac=1 ref=5 deblock=1:0:0 analyse=0x3:0x113 me=hex subme=8 psy=1 psy_rd=1.00:0.00 mixed_ref=1 me_range=16 chroma_me=1 trellis=2 8x8dct=1 cqm=0 deadzone=21,11 fast_pskip=1 chroma_qp_offset=-2 threads=18 lookahead_threads=3 sliced_threads=0 nr=0 decimate=1 interlaced=0 bluray_compat=0 constrained_intra=0 bframes=3 b_pyramid=2 b_adapt=1 b_bias=0 direct=3 weightb=1 open_gop=0 weightp=2 keyint=250 keyint_min=15 scenecut=40 intra_refresh=0 rc_lookahead=50 rc=crf mbtree=1 crf=24.0 qcomp=0.60 qpmin=0 qpmax=69 qpstep=4 ip_ratio=1.40 aq=1:1.00\n",
      "Output #0, mp4, to '/home/ubuntu/Documents/animations_059_Generalli/building_131/ux_y/videos/watermarked_size1920_speed1.0.mp4':\n",
      "  Metadata:\n",
      "    encoder         : Lavf60.16.100\n",
      "  Stream #0:0: Video: h264 (avc1 / 0x31637661), yuv420p(tv, progressive), 1920x1010, q=2-31, 15 fps, 15360 tbn\n",
      "    Metadata:\n",
      "      encoder         : Lavc60.31.102 libx264\n",
      "    Side data:\n",
      "      cpb: bitrate max/min/avg: 0/0/0 buffer size: 0 vbv_delay: N/A\n",
      "[out#0/mp4 @ 0x645987b5e240] video:2996kB audio:0kB subtitle:0kB other streams:0kB global headers:0kB muxing overhead: 0.107716%\n",
      "frame=  201 fps= 18 q=-1.0 Lsize=    3000kB time=00:00:13.20 bitrate=1861.6kbits/s speed=1.21x    \n",
      "[libx264 @ 0x645987b5f3c0] frame I:1     Avg QP:19.73  size: 52361\n",
      "[libx264 @ 0x645987b5f3c0] frame P:50    Avg QP:22.60  size: 25193\n",
      "[libx264 @ 0x645987b5f3c0] frame B:150   Avg QP:23.62  size: 11704\n",
      "[libx264 @ 0x645987b5f3c0] consecutive B-frames:  0.5%  0.0%  0.0% 99.5%\n",
      "[libx264 @ 0x645987b5f3c0] mb I  I16..4: 29.8% 62.3%  7.9%\n",
      "[libx264 @ 0x645987b5f3c0] mb P  I16..4:  9.8% 18.3%  0.2%  P16..4: 33.9%  5.7%  1.2%  0.0%  0.0%    skip:31.0%\n",
      "[libx264 @ 0x645987b5f3c0] mb B  I16..4:  0.8%  1.6%  0.0%  B16..8: 30.4%  7.1%  0.7%  direct: 2.5%  skip:57.0%  L0:48.2% L1:45.3% BI: 6.5%\n",
      "[libx264 @ 0x645987b5f3c0] 8x8 transform intra:64.8% inter:96.9%\n",
      "[libx264 @ 0x645987b5f3c0] direct mvs  spatial:93.3% temporal:6.7%\n",
      "[libx264 @ 0x645987b5f3c0] coded y,uvDC,uvAC intra: 39.4% 14.5% 1.7% inter: 12.3% 2.2% 0.1%\n",
      "[libx264 @ 0x645987b5f3c0] i16 v,h,dc,p: 17% 13%  7% 63%\n",
      "[libx264 @ 0x645987b5f3c0] i8 v,h,dc,ddl,ddr,vr,hd,vl,hu: 11%  8% 10% 10% 12% 10% 13% 11% 15%\n",
      "[libx264 @ 0x645987b5f3c0] i4 v,h,dc,ddl,ddr,vr,hd,vl,hu: 25% 10%  8%  8%  8%  8%  9%  9% 15%\n",
      "[libx264 @ 0x645987b5f3c0] i8c dc,h,v,p: 73% 21%  5%  1%\n",
      "[libx264 @ 0x645987b5f3c0] Weighted P-Frames: Y:0.0% UV:0.0%\n",
      "[libx264 @ 0x645987b5f3c0] ref P L0: 47.6%  6.8% 19.0% 14.0% 12.7%\n",
      "[libx264 @ 0x645987b5f3c0] ref B L0: 83.5%  8.8%  5.0%  2.6%\n",
      "[libx264 @ 0x645987b5f3c0] ref B L1: 97.7%  2.3%\n",
      "[libx264 @ 0x645987b5f3c0] kb/s:1831.38\n"
     ]
    },
    {
     "name": "stdout",
     "output_type": "stream",
     "text": [
      "command: ffmpeg -framerate 15 -pattern_type glob -i \"/home/ubuntu/Documents/animations_059_Generalli/building_131/ux_y/watermarked/*.png\"     -filter_complex \"setpts=1.0*PTS,scale=1080:-2:flags=lanczos\"     -c:v libx264 -preset slow -crf 24 -pix_fmt yuv420p \"/home/ubuntu/Documents/animations_059_Generalli/building_131/ux_y/videos/watermarked_size1080_speed1.0.mp4\"\n",
      "/home/ubuntu/Documents/Codigos/AeroSim/cfdmod\n"
     ]
    },
    {
     "name": "stderr",
     "output_type": "stream",
     "text": [
      "ffmpeg version 6.1.1-3ubuntu5 Copyright (c) 2000-2023 the FFmpeg developers\n",
      "  built with gcc 13 (Ubuntu 13.2.0-23ubuntu3)\n",
      "  configuration: --prefix=/usr --extra-version=3ubuntu5 --toolchain=hardened --libdir=/usr/lib/x86_64-linux-gnu --incdir=/usr/include/x86_64-linux-gnu --arch=amd64 --enable-gpl --disable-stripping --disable-omx --enable-gnutls --enable-libaom --enable-libass --enable-libbs2b --enable-libcaca --enable-libcdio --enable-libcodec2 --enable-libdav1d --enable-libflite --enable-libfontconfig --enable-libfreetype --enable-libfribidi --enable-libglslang --enable-libgme --enable-libgsm --enable-libharfbuzz --enable-libmp3lame --enable-libmysofa --enable-libopenjpeg --enable-libopenmpt --enable-libopus --enable-librubberband --enable-libshine --enable-libsnappy --enable-libsoxr --enable-libspeex --enable-libtheora --enable-libtwolame --enable-libvidstab --enable-libvorbis --enable-libvpx --enable-libwebp --enable-libx265 --enable-libxml2 --enable-libxvid --enable-libzimg --enable-openal --enable-opencl --enable-opengl --disable-sndio --enable-libvpl --disable-libmfx --enable-libdc1394 --enable-libdrm --enable-libiec61883 --enable-chromaprint --enable-frei0r --enable-ladspa --enable-libbluray --enable-libjack --enable-libpulse --enable-librabbitmq --enable-librist --enable-libsrt --enable-libssh --enable-libsvtav1 --enable-libx264 --enable-libzmq --enable-libzvbi --enable-lv2 --enable-sdl2 --enable-libplacebo --enable-librav1e --enable-pocketsphinx --enable-librsvg --enable-libjxl --enable-shared\n",
      "  libavutil      58. 29.100 / 58. 29.100\n",
      "  libavcodec     60. 31.102 / 60. 31.102\n",
      "  libavformat    60. 16.100 / 60. 16.100\n",
      "  libavdevice    60.  3.100 / 60.  3.100\n",
      "  libavfilter     9. 12.100 /  9. 12.100\n",
      "  libswscale      7.  5.100 /  7.  5.100\n",
      "  libswresample   4. 12.100 /  4. 12.100\n",
      "  libpostproc    57.  3.100 / 57.  3.100\n",
      "Input #0, image2, from '/home/ubuntu/Documents/animations_059_Generalli/building_131/ux_y/watermarked/*.png':\n",
      "  Duration: 00:00:13.40, start: 0.000000, bitrate: N/A\n",
      "  Stream #0:0: Video: png, rgb24(pc, gbr/unknown/unknown), 1554x818, 15 fps, 15 tbr, 15 tbn\n",
      "Stream mapping:\n",
      "  Stream #0:0 (png) -> setpts:default\n",
      "  scale:default -> Stream #0:0 (libx264)\n",
      "Press [q] to stop, [?] for help\n",
      "[libx264 @ 0x63d89e5993c0] using cpu capabilities: MMX2 SSE2Fast SSSE3 SSE4.2 AVX FMA3 BMI2 AVX2\n",
      "[libx264 @ 0x63d89e5993c0] profile High, level 3.1, 4:2:0, 8-bit\n",
      "[libx264 @ 0x63d89e5993c0] 264 - core 164 r3108 31e19f9 - H.264/MPEG-4 AVC codec - Copyleft 2003-2023 - http://www.videolan.org/x264.html - options: cabac=1 ref=5 deblock=1:0:0 analyse=0x3:0x113 me=hex subme=8 psy=1 psy_rd=1.00:0.00 mixed_ref=1 me_range=16 chroma_me=1 trellis=2 8x8dct=1 cqm=0 deadzone=21,11 fast_pskip=1 chroma_qp_offset=-2 threads=18 lookahead_threads=3 sliced_threads=0 nr=0 decimate=1 interlaced=0 bluray_compat=0 constrained_intra=0 bframes=3 b_pyramid=2 b_adapt=1 b_bias=0 direct=3 weightb=1 open_gop=0 weightp=2 keyint=250 keyint_min=15 scenecut=40 intra_refresh=0 rc_lookahead=50 rc=crf mbtree=1 crf=24.0 qcomp=0.60 qpmin=0 qpmax=69 qpstep=4 ip_ratio=1.40 aq=1:1.00\n",
      "Output #0, mp4, to '/home/ubuntu/Documents/animations_059_Generalli/building_131/ux_y/videos/watermarked_size1080_speed1.0.mp4':\n",
      "  Metadata:\n",
      "    encoder         : Lavf60.16.100\n",
      "  Stream #0:0: Video: h264 (avc1 / 0x31637661), yuv420p(tv, progressive), 1080x568, q=2-31, 15 fps, 15360 tbn\n",
      "    Metadata:\n",
      "      encoder         : Lavc60.31.102 libx264\n",
      "    Side data:\n",
      "      cpb: bitrate max/min/avg: 0/0/0 buffer size: 0 vbv_delay: N/A\n",
      "[out#0/mp4 @ 0x63d89e598240] video:1187kB audio:0kB subtitle:0kB other streams:0kB global headers:0kB muxing overhead: 0.270630%\n",
      "frame=  201 fps= 41 q=-1.0 Lsize=    1190kB time=00:00:13.20 bitrate= 738.5kbits/s speed=2.68x    \n",
      "[libx264 @ 0x63d89e5993c0] frame I:1     Avg QP:20.44  size: 23430\n",
      "[libx264 @ 0x63d89e5993c0] frame P:50    Avg QP:23.65  size: 10780\n",
      "[libx264 @ 0x63d89e5993c0] frame B:150   Avg QP:25.08  size:  4348\n",
      "[libx264 @ 0x63d89e5993c0] consecutive B-frames:  0.5%  0.0%  0.0% 99.5%\n",
      "[libx264 @ 0x63d89e5993c0] mb I  I16..4: 17.4% 70.2% 12.4%\n",
      "[libx264 @ 0x63d89e5993c0] mb P  I16..4:  3.5% 25.2%  0.3%  P16..4: 29.5% 10.3%  2.5%  0.0%  0.0%    skip:28.9%\n",
      "[libx264 @ 0x63d89e5993c0] mb B  I16..4:  0.2%  1.6%  0.0%  B16..8: 26.6%  9.0%  1.4%  direct: 3.4%  skip:57.8%  L0:43.1% L1:42.6% BI:14.3%\n",
      "[libx264 @ 0x63d89e5993c0] 8x8 transform intra:86.4% inter:96.9%\n",
      "[libx264 @ 0x63d89e5993c0] direct mvs  spatial:93.3% temporal:6.7%\n",
      "[libx264 @ 0x63d89e5993c0] coded y,uvDC,uvAC intra: 65.5% 11.2% 2.4% inter: 16.0% 1.4% 0.2%\n",
      "[libx264 @ 0x63d89e5993c0] i16 v,h,dc,p: 16% 16%  6% 62%\n",
      "[libx264 @ 0x63d89e5993c0] i8 v,h,dc,ddl,ddr,vr,hd,vl,hu:  8%  8%  5% 11% 13% 11% 15% 12% 17%\n",
      "[libx264 @ 0x63d89e5993c0] i4 v,h,dc,ddl,ddr,vr,hd,vl,hu: 20%  8%  6%  8% 10% 10% 13% 10% 15%\n",
      "[libx264 @ 0x63d89e5993c0] i8c dc,h,v,p: 78% 16%  5%  0%\n",
      "[libx264 @ 0x63d89e5993c0] Weighted P-Frames: Y:0.0% UV:0.0%\n",
      "[libx264 @ 0x63d89e5993c0] ref P L0: 48.7% 10.4% 17.9% 11.3% 11.6%\n",
      "[libx264 @ 0x63d89e5993c0] ref B L0: 89.4%  5.9%  3.0%  1.7%\n",
      "[libx264 @ 0x63d89e5993c0] ref B L1: 99.0%  1.0%\n",
      "[libx264 @ 0x63d89e5993c0] kb/s:725.15\n"
     ]
    }
   ],
   "source": [
    "if turn_into_video:\n",
    "    for image_size in gif_size_list:\n",
    "        for speed_multiplier in speed_multiplier_list:\n",
    "            video_out = generate_mp4_from_images(\n",
    "                images_dir=images_with_watermark_path_dir, \n",
    "                video_dir=videos_path,\n",
    "                image_size=image_size,\n",
    "                speed_multiplier=speed_multiplier,\n",
    "            )\n"
   ]
  },
  {
   "cell_type": "code",
   "execution_count": 10,
   "metadata": {},
   "outputs": [
    {
     "name": "stdout",
     "output_type": "stream",
     "text": [
      "command: ffmpeg -y -i \"/home/ubuntu/Documents/animations_059_Generalli/building_131/ux_y/videos/watermarked_size1920_speed1.0.mp4\" -filter_complex \"[0:v]minterpolate=mi_mode=mci:mc_mode=none:me_mode=bidir:fps=24[v];[v]setpts=1*PTS\" \"/home/ubuntu/Documents/animations_059_Generalli/building_131/ux_y/videos/watermarked_size1920_speed1.0_interpolated.mp4\"\n",
      "/home/ubuntu/Documents/Codigos/AeroSim/cfdmod\n"
     ]
    },
    {
     "name": "stderr",
     "output_type": "stream",
     "text": [
      "ffmpeg version 6.1.1-3ubuntu5 Copyright (c) 2000-2023 the FFmpeg developers\n",
      "  built with gcc 13 (Ubuntu 13.2.0-23ubuntu3)\n",
      "  configuration: --prefix=/usr --extra-version=3ubuntu5 --toolchain=hardened --libdir=/usr/lib/x86_64-linux-gnu --incdir=/usr/include/x86_64-linux-gnu --arch=amd64 --enable-gpl --disable-stripping --disable-omx --enable-gnutls --enable-libaom --enable-libass --enable-libbs2b --enable-libcaca --enable-libcdio --enable-libcodec2 --enable-libdav1d --enable-libflite --enable-libfontconfig --enable-libfreetype --enable-libfribidi --enable-libglslang --enable-libgme --enable-libgsm --enable-libharfbuzz --enable-libmp3lame --enable-libmysofa --enable-libopenjpeg --enable-libopenmpt --enable-libopus --enable-librubberband --enable-libshine --enable-libsnappy --enable-libsoxr --enable-libspeex --enable-libtheora --enable-libtwolame --enable-libvidstab --enable-libvorbis --enable-libvpx --enable-libwebp --enable-libx265 --enable-libxml2 --enable-libxvid --enable-libzimg --enable-openal --enable-opencl --enable-opengl --disable-sndio --enable-libvpl --disable-libmfx --enable-libdc1394 --enable-libdrm --enable-libiec61883 --enable-chromaprint --enable-frei0r --enable-ladspa --enable-libbluray --enable-libjack --enable-libpulse --enable-librabbitmq --enable-librist --enable-libsrt --enable-libssh --enable-libsvtav1 --enable-libx264 --enable-libzmq --enable-libzvbi --enable-lv2 --enable-sdl2 --enable-libplacebo --enable-librav1e --enable-pocketsphinx --enable-librsvg --enable-libjxl --enable-shared\n",
      "  libavutil      58. 29.100 / 58. 29.100\n",
      "  libavcodec     60. 31.102 / 60. 31.102\n",
      "  libavformat    60. 16.100 / 60. 16.100\n",
      "  libavdevice    60.  3.100 / 60.  3.100\n",
      "  libavfilter     9. 12.100 /  9. 12.100\n",
      "  libswscale      7.  5.100 /  7.  5.100\n",
      "  libswresample   4. 12.100 /  4. 12.100\n",
      "  libpostproc    57.  3.100 / 57.  3.100\n",
      "Input #0, mov,mp4,m4a,3gp,3g2,mj2, from '/home/ubuntu/Documents/animations_059_Generalli/building_131/ux_y/videos/watermarked_size1920_speed1.0.mp4':\n",
      "  Metadata:\n",
      "    major_brand     : isom\n",
      "    minor_version   : 512\n",
      "    compatible_brands: isomiso2avc1mp41\n",
      "    encoder         : Lavf60.16.100\n",
      "  Duration: 00:00:13.40, start: 0.000000, bitrate: 1833 kb/s\n",
      "  Stream #0:0[0x1](und): Video: h264 (High) (avc1 / 0x31637661), yuv420p(progressive), 1920x1010, 1831 kb/s, 15 fps, 15 tbr, 15360 tbn (default)\n",
      "    Metadata:\n",
      "      handler_name    : VideoHandler\n",
      "      vendor_id       : [0][0][0][0]\n",
      "      encoder         : Lavc60.31.102 libx264\n",
      "Stream mapping:\n",
      "  Stream #0:0 (h264) -> minterpolate:default\n",
      "  setpts:default -> Stream #0:0 (libx264)\n",
      "Press [q] to stop, [?] for help\n",
      "[libx264 @ 0x60c04c0c6a80] using cpu capabilities: MMX2 SSE2Fast SSSE3 SSE4.2 AVX FMA3 BMI2 AVX2\n",
      "[libx264 @ 0x60c04c0c6a80] profile High, level 4.0, 4:2:0, 8-bit\n",
      "[libx264 @ 0x60c04c0c6a80] 264 - core 164 r3108 31e19f9 - H.264/MPEG-4 AVC codec - Copyleft 2003-2023 - http://www.videolan.org/x264.html - options: cabac=1 ref=3 deblock=1:0:0 analyse=0x3:0x113 me=hex subme=7 psy=1 psy_rd=1.00:0.00 mixed_ref=1 me_range=16 chroma_me=1 trellis=1 8x8dct=1 cqm=0 deadzone=21,11 fast_pskip=1 chroma_qp_offset=-2 threads=18 lookahead_threads=3 sliced_threads=0 nr=0 decimate=1 interlaced=0 bluray_compat=0 constrained_intra=0 bframes=3 b_pyramid=2 b_adapt=1 b_bias=0 direct=1 weightb=1 open_gop=0 weightp=2 keyint=250 keyint_min=24 scenecut=40 intra_refresh=0 rc_lookahead=40 rc=crf mbtree=1 crf=23.0 qcomp=0.60 qpmin=0 qpmax=69 qpstep=4 ip_ratio=1.40 aq=1:1.00\n",
      "Output #0, mp4, to '/home/ubuntu/Documents/animations_059_Generalli/building_131/ux_y/videos/watermarked_size1920_speed1.0_interpolated.mp4':\n",
      "  Metadata:\n",
      "    major_brand     : isom\n",
      "    minor_version   : 512\n",
      "    compatible_brands: isomiso2avc1mp41\n",
      "    encoder         : Lavf60.16.100\n",
      "  Stream #0:0: Video: h264 (avc1 / 0x31637661), yuv420p(progressive), 1920x1010, q=2-31, 24 fps, 12288 tbn\n",
      "    Metadata:\n",
      "      encoder         : Lavc60.31.102 libx264\n",
      "    Side data:\n",
      "      cpb: bitrate max/min/avg: 0/0/0 buffer size: 0 vbv_delay: N/A\n",
      "[out#0/mp4 @ 0x60c04c0c5940] video:3328kB audio:0kB subtitle:0kB other streams:0kB global headers:0kB muxing overhead: 0.138887%\n",
      "frame=  319 fps=0.8 q=-1.0 Lsize=    3333kB time=00:00:13.16 bitrate=2073.4kbits/s speed=0.0334x    \n",
      "[libx264 @ 0x60c04c0c6a80] frame I:2     Avg QP:18.63  size: 51970\n",
      "[libx264 @ 0x60c04c0c6a80] frame P:80    Avg QP:22.35  size: 20459\n",
      "[libx264 @ 0x60c04c0c6a80] frame B:237   Avg QP:23.55  size:  7032\n",
      "[libx264 @ 0x60c04c0c6a80] consecutive B-frames:  0.9%  0.0%  0.0% 99.1%\n",
      "[libx264 @ 0x60c04c0c6a80] mb I  I16..4: 19.9% 71.7%  8.4%\n",
      "[libx264 @ 0x60c04c0c6a80] mb P  I16..4: 10.1% 23.7%  0.2%  P16..4: 27.1%  5.0%  0.9%  0.0%  0.0%    skip:32.9%\n",
      "[libx264 @ 0x60c04c0c6a80] mb B  I16..4:  0.5%  1.0%  0.0%  B16..8: 26.6%  2.7%  0.2%  direct: 0.8%  skip:68.1%  L0:46.0% L1:48.6% BI: 5.5%\n",
      "[libx264 @ 0x60c04c0c6a80] 8x8 transform intra:69.3% inter:96.4%\n",
      "[libx264 @ 0x60c04c0c6a80] coded y,uvDC,uvAC intra: 37.0% 13.5% 1.7% inter: 7.5% 2.9% 0.1%\n",
      "[libx264 @ 0x60c04c0c6a80] i16 v,h,dc,p: 11% 13%  4% 71%\n",
      "[libx264 @ 0x60c04c0c6a80] i8 v,h,dc,ddl,ddr,vr,hd,vl,hu: 19% 19% 19%  7%  8%  6%  8%  6%  7%\n",
      "[libx264 @ 0x60c04c0c6a80] i4 v,h,dc,ddl,ddr,vr,hd,vl,hu: 38% 21% 13%  6%  6%  4%  5%  4%  3%\n",
      "[libx264 @ 0x60c04c0c6a80] i8c dc,h,v,p: 82%  9%  8%  0%\n",
      "[libx264 @ 0x60c04c0c6a80] Weighted P-Frames: Y:0.0% UV:0.0%\n",
      "[libx264 @ 0x60c04c0c6a80] ref P L0: 66.2%  6.8% 16.9% 10.2%\n",
      "[libx264 @ 0x60c04c0c6a80] ref B L0: 93.2%  4.6%  2.2%\n",
      "[libx264 @ 0x60c04c0c6a80] ref B L1: 98.8%  1.2%\n",
      "[libx264 @ 0x60c04c0c6a80] kb/s:2050.68\n"
     ]
    },
    {
     "name": "stdout",
     "output_type": "stream",
     "text": [
      "command: ffmpeg -y -i \"/home/ubuntu/Documents/animations_059_Generalli/building_131/ux_y/videos/watermarked_size1080_speed1.0.mp4\" -filter_complex \"[0:v]minterpolate=mi_mode=mci:mc_mode=none:me_mode=bidir:fps=24[v];[v]setpts=1*PTS\" \"/home/ubuntu/Documents/animations_059_Generalli/building_131/ux_y/videos/watermarked_size1080_speed1.0_interpolated.mp4\"\n",
      "/home/ubuntu/Documents/Codigos/AeroSim/cfdmod\n"
     ]
    },
    {
     "name": "stderr",
     "output_type": "stream",
     "text": [
      "ffmpeg version 6.1.1-3ubuntu5 Copyright (c) 2000-2023 the FFmpeg developers\n",
      "  built with gcc 13 (Ubuntu 13.2.0-23ubuntu3)\n",
      "  configuration: --prefix=/usr --extra-version=3ubuntu5 --toolchain=hardened --libdir=/usr/lib/x86_64-linux-gnu --incdir=/usr/include/x86_64-linux-gnu --arch=amd64 --enable-gpl --disable-stripping --disable-omx --enable-gnutls --enable-libaom --enable-libass --enable-libbs2b --enable-libcaca --enable-libcdio --enable-libcodec2 --enable-libdav1d --enable-libflite --enable-libfontconfig --enable-libfreetype --enable-libfribidi --enable-libglslang --enable-libgme --enable-libgsm --enable-libharfbuzz --enable-libmp3lame --enable-libmysofa --enable-libopenjpeg --enable-libopenmpt --enable-libopus --enable-librubberband --enable-libshine --enable-libsnappy --enable-libsoxr --enable-libspeex --enable-libtheora --enable-libtwolame --enable-libvidstab --enable-libvorbis --enable-libvpx --enable-libwebp --enable-libx265 --enable-libxml2 --enable-libxvid --enable-libzimg --enable-openal --enable-opencl --enable-opengl --disable-sndio --enable-libvpl --disable-libmfx --enable-libdc1394 --enable-libdrm --enable-libiec61883 --enable-chromaprint --enable-frei0r --enable-ladspa --enable-libbluray --enable-libjack --enable-libpulse --enable-librabbitmq --enable-librist --enable-libsrt --enable-libssh --enable-libsvtav1 --enable-libx264 --enable-libzmq --enable-libzvbi --enable-lv2 --enable-sdl2 --enable-libplacebo --enable-librav1e --enable-pocketsphinx --enable-librsvg --enable-libjxl --enable-shared\n",
      "  libavutil      58. 29.100 / 58. 29.100\n",
      "  libavcodec     60. 31.102 / 60. 31.102\n",
      "  libavformat    60. 16.100 / 60. 16.100\n",
      "  libavdevice    60.  3.100 / 60.  3.100\n",
      "  libavfilter     9. 12.100 /  9. 12.100\n",
      "  libswscale      7.  5.100 /  7.  5.100\n",
      "  libswresample   4. 12.100 /  4. 12.100\n",
      "  libpostproc    57.  3.100 / 57.  3.100\n",
      "Input #0, mov,mp4,m4a,3gp,3g2,mj2, from '/home/ubuntu/Documents/animations_059_Generalli/building_131/ux_y/videos/watermarked_size1080_speed1.0.mp4':\n",
      "  Metadata:\n",
      "    major_brand     : isom\n",
      "    minor_version   : 512\n",
      "    compatible_brands: isomiso2avc1mp41\n",
      "    encoder         : Lavf60.16.100\n",
      "  Duration: 00:00:13.40, start: 0.000000, bitrate: 727 kb/s\n",
      "  Stream #0:0[0x1](und): Video: h264 (High) (avc1 / 0x31637661), yuv420p(progressive), 1080x568, 725 kb/s, 15 fps, 15 tbr, 15360 tbn (default)\n",
      "    Metadata:\n",
      "      handler_name    : VideoHandler\n",
      "      vendor_id       : [0][0][0][0]\n",
      "      encoder         : Lavc60.31.102 libx264\n",
      "Stream mapping:\n",
      "  Stream #0:0 (h264) -> minterpolate:default\n",
      "  setpts:default -> Stream #0:0 (libx264)\n",
      "Press [q] to stop, [?] for help\n",
      "[libx264 @ 0x5cdc1bbe6a00] using cpu capabilities: MMX2 SSE2Fast SSSE3 SSE4.2 AVX FMA3 BMI2 AVX2\n",
      "[libx264 @ 0x5cdc1bbe6a00] profile High, level 3.1, 4:2:0, 8-bit\n",
      "[libx264 @ 0x5cdc1bbe6a00] 264 - core 164 r3108 31e19f9 - H.264/MPEG-4 AVC codec - Copyleft 2003-2023 - http://www.videolan.org/x264.html - options: cabac=1 ref=3 deblock=1:0:0 analyse=0x3:0x113 me=hex subme=7 psy=1 psy_rd=1.00:0.00 mixed_ref=1 me_range=16 chroma_me=1 trellis=1 8x8dct=1 cqm=0 deadzone=21,11 fast_pskip=1 chroma_qp_offset=-2 threads=18 lookahead_threads=3 sliced_threads=0 nr=0 decimate=1 interlaced=0 bluray_compat=0 constrained_intra=0 bframes=3 b_pyramid=2 b_adapt=1 b_bias=0 direct=1 weightb=1 open_gop=0 weightp=2 keyint=250 keyint_min=24 scenecut=40 intra_refresh=0 rc_lookahead=40 rc=crf mbtree=1 crf=23.0 qcomp=0.60 qpmin=0 qpmax=69 qpstep=4 ip_ratio=1.40 aq=1:1.00\n",
      "Output #0, mp4, to '/home/ubuntu/Documents/animations_059_Generalli/building_131/ux_y/videos/watermarked_size1080_speed1.0_interpolated.mp4':\n",
      "  Metadata:\n",
      "    major_brand     : isom\n",
      "    minor_version   : 512\n",
      "    compatible_brands: isomiso2avc1mp41\n",
      "    encoder         : Lavf60.16.100\n",
      "  Stream #0:0: Video: h264 (avc1 / 0x31637661), yuv420p(progressive), 1080x568, q=2-31, 24 fps, 12288 tbn\n",
      "    Metadata:\n",
      "      encoder         : Lavc60.31.102 libx264\n",
      "    Side data:\n",
      "      cpb: bitrate max/min/avg: 0/0/0 buffer size: 0 vbv_delay: N/A\n",
      "[out#0/mp4 @ 0x5cdc1bbe58c0] video:1289kB audio:0kB subtitle:0kB other streams:0kB global headers:0kB muxing overhead: 0.356062%\n",
      "frame=  319 fps=2.5 q=-1.0 Lsize=    1294kB time=00:00:13.16 bitrate= 805.0kbits/s speed=0.102x    \n",
      "[libx264 @ 0x5cdc1bbe6a00] frame I:2     Avg QP:19.24  size: 23935\n",
      "[libx264 @ 0x5cdc1bbe6a00] frame P:80    Avg QP:23.17  size:  9082\n",
      "[libx264 @ 0x5cdc1bbe6a00] frame B:237   Avg QP:25.06  size:  2300\n",
      "[libx264 @ 0x5cdc1bbe6a00] consecutive B-frames:  0.9%  0.0%  0.0% 99.1%\n",
      "[libx264 @ 0x5cdc1bbe6a00] mb I  I16..4: 15.0% 72.9% 12.1%\n",
      "[libx264 @ 0x5cdc1bbe6a00] mb P  I16..4:  4.0% 27.7%  0.5%  P16..4: 25.6%  9.5%  2.0%  0.0%  0.0%    skip:30.8%\n",
      "[libx264 @ 0x5cdc1bbe6a00] mb B  I16..4:  0.1%  0.7%  0.0%  B16..8: 24.6%  3.1%  0.4%  direct: 1.3%  skip:69.8%  L0:42.1% L1:46.3% BI:11.6%\n",
      "[libx264 @ 0x5cdc1bbe6a00] 8x8 transform intra:85.2% inter:94.7%\n",
      "[libx264 @ 0x5cdc1bbe6a00] coded y,uvDC,uvAC intra: 62.0% 11.3% 2.5% inter: 9.6% 1.8% 0.1%\n",
      "[libx264 @ 0x5cdc1bbe6a00] i16 v,h,dc,p: 14% 16%  5% 65%\n",
      "[libx264 @ 0x5cdc1bbe6a00] i8 v,h,dc,ddl,ddr,vr,hd,vl,hu: 15% 19% 13%  9%  9%  7% 10%  8% 11%\n",
      "[libx264 @ 0x5cdc1bbe6a00] i4 v,h,dc,ddl,ddr,vr,hd,vl,hu: 32% 21% 11%  7%  8%  6%  7%  5%  4%\n",
      "[libx264 @ 0x5cdc1bbe6a00] i8c dc,h,v,p: 85%  7%  8%  0%\n",
      "[libx264 @ 0x5cdc1bbe6a00] Weighted P-Frames: Y:0.0% UV:0.0%\n",
      "[libx264 @ 0x5cdc1bbe6a00] ref P L0: 65.5% 12.8% 14.4%  7.3%\n",
      "[libx264 @ 0x5cdc1bbe6a00] ref B L0: 95.6%  3.3%  1.1%\n",
      "[libx264 @ 0x5cdc1bbe6a00] ref B L1: 99.4%  0.6%\n",
      "[libx264 @ 0x5cdc1bbe6a00] kb/s:794.23\n"
     ]
    }
   ],
   "source": [
    "if generate_intermediate_frames:\n",
    "    for image_size in gif_size_list:\n",
    "        for speed_multiplier in speed_multiplier_list:\n",
    "            video_out = videos_path/f\"{images_with_watermark_path_dir.stem}_size{image_size}_speed{speed_multiplier}.mp4\"\n",
    "            generate_frames_for_video(video_file=video_out)\n"
   ]
  }
 ],
 "metadata": {
  "kernelspec": {
   "display_name": "eng",
   "language": "python",
   "name": "python3"
  },
  "language_info": {
   "codemirror_mode": {
    "name": "ipython",
    "version": 3
   },
   "file_extension": ".py",
   "mimetype": "text/x-python",
   "name": "python",
   "nbconvert_exporter": "python",
   "pygments_lexer": "ipython3",
   "version": "3.12.9"
  }
 },
 "nbformat": 4,
 "nbformat_minor": 2
}
